<?xml version="1.0" encoding="UTF-8" standalone="no"?> <svg id="Layer_1" data-name="Layer 1" xmlns="http://www.w3.org/2000/svg" viewBox="0 0 64 64"><defs><style>.cls-1{fill:#231f20;fill-rule:evenodd;}</style></defs><path class="cls-1" d="M12.924,9.056a3.944,3.944,0,0,1,4.451,1.356L41.64,40.766a.938.938,0,0,1,1,.209L55.4,53.731a.939.939,0,0,1,0,1.322l-.767.767a.937.937,0,0,1-1.322,0L40.553,43.064a.936.936,0,0,1-.189-1.05L10.058,17.864a3.939,3.939,0,0,1-1.373-4.447,6.819,6.819,0,0,1,4.239-4.361ZM36.932,36.675,13.049,10.648a.454.454,0,0,1,.182-.736,3.02,3.02,0,0,1,3.437,1.072L37.2,36.405c.187.23-.057.49-.268.27Zm-.544.654L10.278,13.536a.456.456,0,0,0-.735.185,3.021,3.021,0,0,0,1.084,3.434L36.119,37.6c.231.186.49-.059.269-.269Zm-3.55-4.444L12.88,11.136c-1.054-1.472-3.729.689-2.1,2.239L32.514,33.183c.323.3.568-.044.324-.3Z"/></svg>