<?xml version="1.0" encoding="UTF-8" standalone="no"?>
<svg
   xmlns:dc="http://purl.org/dc/elements/1.1/"
   xmlns:cc="http://creativecommons.org/ns#"
   xmlns:rdf="http://www.w3.org/1999/02/22-rdf-syntax-ns#"
   xmlns:svg="http://www.w3.org/2000/svg"
   xmlns="http://www.w3.org/2000/svg"
   xmlns:sodipodi="http://sodipodi.sourceforge.net/DTD/sodipodi-0.dtd"
   xmlns:inkscape="http://www.inkscape.org/namespaces/inkscape"
   sodipodi:docname="pastry bag, piping bag, pastry, bakery.svg"
   width="64"
   height="64"
   viewBox="0 0 16.933333 16.933334"
   version="1.1"
   id="svg8"
   inkscape:version="1.0 (4035a4fb49, 2020-05-01)">
  <defs
     id="defs2">
    <inkscape:path-effect
       hide_knots="false"
       only_selected="false"
       apply_with_radius="true"
       apply_no_radius="true"
       use_knot_distance="true"
       flexible="false"
       chamfer_steps="1"
       radius="0"
       mode="F"
       method="auto"
       unit="px"
       satellites_param="F,0,1,1,0,2.1166634,0,1 @ F,0,0,1,0,1.0583335,0,1 @ F,0,0,1,0,1.0583335,0,1 @ F,0,0,1,0,2.1166634,0,1"
       lpeversion="1"
       is_visible="true"
       id="path-effect1122"
       effect="fillet_chamfer" />
  </defs>
  <sodipodi:namedview
     inkscape:snap-global="false"
     inkscape:window-maximized="1"
     inkscape:window-y="-8"
     inkscape:window-x="-8"
     inkscape:window-height="706"
     inkscape:window-width="1366"
     id="base"
     pagecolor="#ffffff"
     bordercolor="#666666"
     borderopacity="1.0"
     inkscape:pageopacity="0.0"
     inkscape:pageshadow="2"
     inkscape:zoom="3.612753"
     inkscape:cx="84.214162"
     inkscape:cy="41.763044"
     inkscape:document-units="px"
     inkscape:current-layer="layer1"
     inkscape:document-rotation="0"
     showgrid="false"
     units="px" />
  <metadata
     id="metadata5">
    <rdf:RDF>
      <cc:Work
         rdf:about="">
        <dc:format>image/svg+xml</dc:format>
        <dc:type
           rdf:resource="http://purl.org/dc/dcmitype/StillImage" />
        <dc:title />
      </cc:Work>
    </rdf:RDF>
  </metadata>
  <g
     inkscape:label="Layer 1"
     inkscape:groupmode="layer"
     id="layer1">
    <g
       id="g845">
      <path
         style="fill:#ecf0f1;fill-opacity:1;fill-rule:evenodd;stroke-width:1.32292;stroke-linecap:round;stroke-linejoin:round;stop-color:#000000"
         d="m 1.9678538,12.6098 c 0,0 2.071425,2.382139 2.200889,2.278568 0.1294641,-0.103572 3.5732084,-1.708926 3.5732084,-1.708926 L 10.072304,10.926767 10.331232,9.9946259 10.020519,6.8098098 12.765157,7.0428452 15.354438,6.3955249 13.25712,3.599101 10.538375,1.65714 9.7874833,4.1687428 9.1660559,7.2240949 6.3955249,6.6285601 5.1008842,7.6901656 3.7026721,9.3990911 Z"
         id="path838" />
      <path
         style="fill:#bec3c7;fill-opacity:1;fill-rule:evenodd;stroke-width:1.32292;stroke-linecap:round;stroke-linejoin:round;stop-color:#000000"
         d="m 1.8124969,13.528995 -0.6602667,2.200889 2.1879426,-0.64732 z"
         id="path840" />
      <path
         d="M 10.401393,1.5963353e-5 A 0.52916481,0.52926681 0 0 0 9.889847,0.37883927 C 9.4018336,2.0375484 8.8669636,3.8630484 9.2041698,6.3914304 8.9560949,6.2856444 8.92501,6.2460414 8.5675801,6.1350924 7.7660074,5.8862794 6.7673913,5.6556474 5.8884261,6.0534354 3.8602476,6.9713174 2.4950392,9.5457244 1.5196224,11.858269 0.54420572,14.170812 0.01598923,16.274944 0.01598923,16.274944 a 0.52916481,0.52926681 0 0 0 0.64227359,0.642398 c 0,0 2.10582158,-0.528291 4.41789148,-1.503923 2.3120695,-0.975632 4.8844617,-2.341083 5.8021637,-4.369646 0.397704,-0.87912 0.168648,-1.8759036 -0.08009,-2.6776036 -0.111077,-0.358011 -0.15044,-0.390523 -0.25629,-0.638779 2.592439,0.338828 4.368747,-0.219077 6.005232,-0.681675 a 0.52916481,0.52926681 0 0 0 0.06459,-0.996414 c 0,0 -0.377184,-0.161886 -0.822089,-0.396395 -0.444906,-0.234508 -0.961743,-0.566436 -1.144518,-0.763848 -0.112159,-0.12114 -0.201818,-0.355159 -0.306411,-0.671856 -0.104593,-0.316699 -0.224611,-0.719245 -0.56425,-1.058948 -0.339635,-0.339701 -0.744174,-0.459745 -1.06081,-0.564358 -0.316637,-0.104616 -0.548538,-0.196354 -0.66966,-0.308538 C 11.846645,2.1025414 11.512719,1.5856114 11.278255,1.1406201 11.043789,0.69562877 10.884002,0.32043957 10.884002,0.32043957 A 0.52916481,0.52926681 0 0 0 10.401393,1.5963353e-5 Z M 10.557957,1.9473634 c 0.22065,0.394803 0.443563,0.815408 0.767317,1.115281 0.34813,0.322437 0.74565,0.432656 1.056677,0.535417 0.311029,0.102762 0.531749,0.195925 0.644341,0.308537 0.112587,0.112609 0.20367,0.331307 0.30641,0.642397 0.102742,0.311091 0.214997,0.710753 0.537381,1.058948 0.299736,0.32374 0.718368,0.546808 1.112999,0.767466 -1.318968,0.399979 -2.702705,0.667886 -4.729986,0.300785 -0.364871,-1.970795 -0.100261,-3.381374 0.304861,-4.728831 z m -3.632489,4.973799 c 0.4017831,0.0014 0.8893324,0.08763 1.3279509,0.22378 0.6101211,0.189385 0.9732559,0.378045 1.0933636,0.43774 0.058552,0.11775 0.2496965,0.48524 0.4397225,1.097709 0.217772,0.701896 0.310078,1.5272056 0.128661,1.9282256 -0.6641554,1.468102 -3.0252605,2.890743 -5.2513483,3.830094 -0.1585783,0.06692 -0.3034916,0.125326 -0.4490233,0.183985 L 2.3107093,12.716694 c 0.058497,-0.145166 0.1167298,-0.289936 0.1834328,-0.448076 0.9391427,-2.226544 2.3620591,-4.5860146 3.8298725,-5.2502946 0.150347,-0.06805 0.3603834,-0.09799 0.6014534,-0.097161 z m -5.0219282,6.8870386 1.222025,1.221226 c -0.7811899,0.270801 -1.3393273,0.417077 -1.752172,0.530766 0.1135903,-0.412685 0.2595589,-0.971026 0.530147,-1.751992 z"
         style="color:#000000;font-style:normal;font-variant:normal;font-weight:normal;font-stretch:normal;font-size:medium;line-height:normal;font-family:sans-serif;font-variant-ligatures:normal;font-variant-position:normal;font-variant-caps:normal;font-variant-numeric:normal;font-variant-alternates:normal;font-variant-east-asian:normal;font-feature-settings:normal;font-variation-settings:normal;text-indent:0;text-align:start;text-decoration:none;text-decoration-line:none;text-decoration-style:solid;text-decoration-color:#000000;letter-spacing:normal;word-spacing:normal;text-transform:none;writing-mode:lr-tb;direction:ltr;text-orientation:mixed;dominant-baseline:auto;baseline-shift:baseline;text-anchor:start;white-space:normal;shape-padding:0;shape-margin:0;inline-size:0;clip-rule:nonzero;display:inline;overflow:visible;visibility:visible;opacity:1;isolation:auto;mix-blend-mode:normal;color-interpolation:sRGB;color-interpolation-filters:linearRGB;solid-color:#000000;solid-opacity:1;vector-effect:none;fill:#2d3e50;fill-opacity:1;fill-rule:evenodd;stroke:none;stroke-width:1.05833;stroke-linecap:round;stroke-linejoin:round;stroke-miterlimit:4;stroke-dasharray:none;stroke-dashoffset:0;stroke-opacity:1;color-rendering:auto;image-rendering:auto;shape-rendering:auto;text-rendering:auto;enable-background:accumulate;stop-color:#000000;stop-opacity:1"
         id="path23" />
    </g>
  </g>
</svg>
