<?xml version="1.0" encoding="UTF-8" standalone="no"?> <svg width="512" height="512" viewBox="0 0 512 512" fill="none" xmlns="http://www.w3.org/2000/svg">
<path d="M464 325.263V208.002C464.036 169.902 452.757 132.65 431.593 100.969L430.656 99.5638C429.718 98.1565 428.357 97.0829 426.77 96.4971C425.183 95.9114 423.452 95.8437 421.824 96.3038L380.872 107.877C382.234 98.7462 381.439 89.4236 378.553 80.6549C375.666 71.8862 370.767 63.9149 364.247 57.3788C357.728 50.8427 349.769 45.9232 341.008 43.014C332.247 40.1048 322.926 39.2866 313.792 40.6248L246.844 50.4018C245.657 50.5752 244.524 51.0134 243.529 51.684C242.533 52.3546 241.702 53.2405 241.096 54.276C240.49 55.3115 240.124 56.4702 240.026 57.6661C239.928 58.862 240.101 60.0646 240.531 61.1848L264.768 124.353C266.701 129.395 269.308 134.153 272.518 138.496L68.384 196.189C62.5157 197.848 57.3494 201.377 53.6702 206.24C49.991 211.103 48.0001 217.035 48 223.133V325.263C27.05 340.763 16 358.707 16 377.363C16 406.11 41.9 432.508 88.93 451.693C133.686 469.947 193.019 480.002 256 480.002C318.981 480.002 378.314 469.947 423.07 451.69C470.1 432.502 496 406.107 496 377.36C496 358.708 484.95 340.761 464 325.263ZM384 177.981V162.34C389.226 154.47 392.009 145.23 392 135.783V121.359L420.525 113.297C437.041 139.317 446.445 169.213 447.8 200.002H376.977C381.564 193.577 384.02 185.875 384 177.981V177.981ZM376 131.142V135.783C375.99 144.325 372.593 152.514 366.553 158.555C360.513 164.595 352.323 167.992 343.781 168.002H326.011C327.89 166.14 329.544 164.065 330.939 161.818C331.052 161.635 331.151 161.447 331.248 161.258C339.296 159.694 346.933 156.479 353.677 151.817C360.422 147.155 366.127 141.146 370.433 134.169L376 131.142ZM353.511 99.3078L359.825 77.7318C363.592 84.3298 365.557 91.8032 365.521 99.4009C365.484 106.999 363.449 114.453 359.619 121.015L357.301 124.973C353.452 131.542 347.936 136.977 341.311 140.729C334.687 144.481 327.188 146.416 319.575 146.338C317.09 146.311 314.612 146.072 312.167 145.624L334.032 131.378C335.439 130.461 336.522 129.125 337.127 127.559C337.732 125.992 337.829 124.275 337.404 122.651L333.704 108.499L347.855 104.799C349.192 104.45 350.415 103.761 351.406 102.798C352.397 101.836 353.123 100.634 353.511 99.3078ZM259.051 64.7918L316.1 56.4568C327.035 54.8252 338.179 57.4697 347.215 63.8408L339.423 90.4668L321.914 95.0438C320.898 95.3096 319.943 95.773 319.106 96.4075C318.269 97.042 317.565 97.8353 317.034 98.742C316.503 99.6486 316.156 100.651 316.013 101.692C315.869 102.733 315.932 103.791 316.198 104.808L320.462 121.121L295.322 137.502C295.055 137.678 294.798 137.87 294.554 138.077C287.83 133.161 282.674 126.404 279.707 118.621L259.051 64.7918ZM307.907 161.102L294.112 168.002H280V162.002C280.012 159.853 280.71 157.765 281.993 156.042C283.276 154.318 285.077 153.051 287.132 152.424C293.433 156.628 300.488 159.575 307.907 161.102ZM264.4 157.419C264.134 158.932 264 160.465 264 162.002V176.002C264 178.124 264.843 180.158 266.343 181.659C267.843 183.159 269.878 184.002 272 184.002H343.781C352.293 184.009 360.652 181.748 368 177.452V177.981C368.003 183.783 365.715 189.352 361.634 193.476C357.552 197.6 352.007 199.945 346.205 200.002H113.723L264.4 157.419ZM64 223.133C63.9935 220.535 64.8363 218.007 66.4 215.933C66.7244 215.975 67.051 215.997 67.378 215.999H336V227.853C336.018 231.351 334.714 234.726 332.348 237.303C329.982 239.88 326.73 241.467 323.243 241.746C317.992 242.225 313.108 244.645 309.545 248.532C305.982 252.42 303.996 257.496 303.976 262.769L304 277.644C304 279.766 303.157 281.8 301.657 283.301C300.157 284.801 298.122 285.644 296 285.644C293.878 285.644 291.843 284.801 290.343 283.301C288.843 281.8 288 279.766 288 277.644V264.36C288 259.056 285.893 253.968 282.142 250.218C278.391 246.467 273.304 244.36 268 244.36C262.696 244.36 257.609 246.467 253.858 250.218C250.107 253.968 248 259.056 248 264.36V291.644C248 293.766 247.157 295.8 245.657 297.301C244.157 298.801 242.122 299.644 240 299.644C237.878 299.644 235.843 298.801 234.343 297.301C232.843 295.8 232 293.766 232 291.644V253.644C232 247.279 229.471 241.174 224.971 236.673C220.47 232.172 214.365 229.644 208 229.644C201.635 229.644 195.53 232.172 191.029 236.673C186.529 241.174 184 247.279 184 253.644V258.055C183.997 261.128 182.775 264.074 180.602 266.246C178.43 268.419 175.484 269.641 172.411 269.644C165.03 269.652 157.941 272.529 152.642 277.666C147.342 282.804 144.248 289.801 144.011 297.178C144.002 297.332 143.998 297.487 143.998 297.644C143.998 299.766 143.155 301.8 141.655 303.301C140.155 304.801 138.12 305.644 135.998 305.644C133.876 305.644 131.841 304.801 130.341 303.301C128.841 301.8 127.998 299.766 127.998 297.644V261.644C127.998 255.279 125.469 249.174 120.969 244.673C116.468 240.172 110.363 237.644 103.998 237.644C97.6328 237.644 91.5283 240.172 87.0274 244.673C82.5266 249.174 79.998 255.279 79.998 261.644V277.644C79.998 279.766 79.1551 281.8 77.6549 283.301C76.1546 284.801 74.1197 285.644 71.998 285.644C69.8763 285.644 67.8414 284.801 66.3411 283.301C64.8409 281.8 63.998 279.766 63.998 277.644L64 223.133ZM64 300.268C67.6197 301.549 71.4941 301.944 75.2977 301.417C79.1013 300.891 82.723 299.459 85.8584 297.242C88.9938 295.025 91.5513 292.088 93.3161 288.678C95.0808 285.268 96.0013 281.484 96 277.644V261.644C96 259.522 96.8429 257.487 98.3431 255.987C99.8434 254.487 101.878 253.644 104 253.644C106.122 253.644 108.157 254.487 109.657 255.987C111.157 257.487 112 259.522 112 261.644V297.644C112.001 303.924 114.464 309.953 118.86 314.438C123.256 318.923 129.234 321.506 135.513 321.633C141.791 321.761 147.87 319.422 152.444 315.119C157.018 310.817 159.724 304.892 159.98 298.618C159.994 298.432 160 298.244 160 298.055C160.003 294.764 161.312 291.609 163.639 289.283C165.966 286.956 169.12 285.647 172.411 285.644C179.726 285.636 186.738 282.726 191.91 277.554C197.082 272.382 199.992 265.369 200 258.055V253.644C200 251.522 200.843 249.487 202.343 247.987C203.843 246.487 205.878 245.644 208 245.644C210.122 245.644 212.157 246.487 213.657 247.987C215.157 249.487 216 251.522 216 253.644V291.644C216 298.009 218.529 304.114 223.029 308.614C227.53 313.115 233.635 315.644 240 315.644C246.365 315.644 252.47 313.115 256.971 308.614C261.471 304.114 264 298.009 264 291.644V264.36C264 263.299 264.421 262.282 265.172 261.531C265.922 260.781 266.939 260.36 268 260.36C269.061 260.36 270.078 260.781 270.828 261.531C271.579 262.282 272 263.299 272 264.36V277.644C272.002 284.009 274.532 290.113 279.034 294.613C281.263 296.841 283.909 298.608 286.822 299.813C289.734 301.018 292.855 301.638 296.007 301.637C299.158 301.636 302.279 301.015 305.19 299.808C308.102 298.601 310.747 296.833 312.975 294.603C315.203 292.374 316.97 289.728 318.176 286.816C319.381 283.904 320.001 280.783 320 277.631L319.976 262.745C319.982 261.477 320.459 260.257 321.316 259.323C322.172 258.388 323.346 257.806 324.608 257.69C332.095 257.09 339.079 253.682 344.16 248.149C349.24 242.616 352.04 235.367 352 227.856V216.002H448V272.002H440C431.516 272.011 423.382 275.386 417.383 281.385C411.384 287.384 408.01 295.518 408 304.002C407.99 312.486 404.616 320.62 398.617 326.619C392.618 332.618 384.484 335.992 376 336.002H64V300.268ZM64 352.002H376C388.726 351.988 400.927 346.926 409.925 337.927C418.924 328.929 423.986 316.728 424 304.002C424.005 299.76 425.692 295.693 428.692 292.694C431.691 289.694 435.758 288.007 440 288.002H448V364.002C447.997 367.183 446.731 370.234 444.481 372.483C442.232 374.733 439.182 375.998 436 376.002H76C72.8185 375.998 69.7682 374.733 67.5185 372.483C65.2688 370.234 64.0034 367.183 64 364.002V352.002ZM376.576 392.002C368.306 395.118 359.8 397.565 351.139 399.321C325.139 404.921 291.346 408.002 256 408.002C219.657 408.002 185.173 404.767 158.9 398.892C150.918 397.199 143.078 394.896 135.449 392.002H376.576ZM417.027 436.875C374.145 454.368 316.958 464.002 256 464.002C195.042 464.002 137.855 454.368 94.973 436.875C54.953 420.549 32 398.857 32 377.36C32 365.129 39.252 354.485 48 346.094V364.002C48.0085 371.425 50.9612 378.542 56.2104 383.791C61.4595 389.041 68.5765 391.993 76 392.002H107.325C113.778 401.336 129.619 408.737 155.411 414.502C182.793 420.63 218.517 424.002 256 424.002C292.444 424.002 327.428 420.792 354.506 414.963C381.145 409.229 397.97 401.515 404.649 392.002H436C443.423 391.993 450.54 389.041 455.79 383.791C461.039 378.542 463.992 371.425 464 364.002V346.095C472.748 354.486 480 365.129 480 377.36C480 398.857 457.047 420.549 417.027 436.875V436.875Z" fill="black"/>
<path d="M291.1 111.368C290.3 112.733 289.924 114.305 290.017 115.884C290.111 117.464 290.671 118.98 291.627 120.241C292.582 121.502 293.89 122.452 295.385 122.97C296.881 123.487 298.496 123.55 300.026 123.15C301.557 122.75 302.935 121.905 303.986 120.722C305.036 119.539 305.712 118.07 305.928 116.503C306.145 114.936 305.891 113.339 305.2 111.916C304.509 110.493 303.411 109.306 302.046 108.507C301.139 107.976 300.137 107.629 299.096 107.485C298.056 107.342 296.997 107.405 295.98 107.67C294.964 107.936 294.01 108.399 293.172 109.034C292.335 109.668 291.631 110.461 291.1 111.368V111.368Z" fill="black"/>
<path d="M285.38 89.4777C286.745 90.2773 288.317 90.6539 289.897 90.5602C291.476 90.4664 292.992 89.9063 294.253 88.9509C295.515 87.9954 296.464 86.6874 296.982 85.1922C297.5 83.6971 297.562 82.082 297.162 80.5512C296.762 79.0204 295.917 77.6426 294.734 76.592C293.551 75.5415 292.083 74.8654 290.515 74.6492C288.948 74.4331 287.352 74.6866 285.928 75.3776C284.505 76.0687 283.318 77.1663 282.519 78.5317C281.988 79.4383 281.641 80.4406 281.497 81.4813C281.354 82.522 281.417 83.5808 281.682 84.5973C281.948 85.6137 282.411 86.5678 283.046 87.4052C283.68 88.2426 284.473 88.9469 285.38 89.4777Z" fill="black"/>
<path d="M318.218 80.8922C319.583 81.6916 321.155 82.0681 322.735 81.9742C324.314 81.8802 325.83 81.32 327.091 80.3644C328.352 79.4089 329.302 78.1008 329.82 76.6056C330.337 75.1105 330.4 73.4954 330 71.9646C329.599 70.4338 328.754 69.0561 327.571 68.0057C326.388 66.9552 324.92 66.2793 323.352 66.0632C321.785 65.8472 320.188 66.1008 318.765 66.7919C317.342 67.4831 316.155 68.5808 315.356 69.9462C314.825 70.8529 314.478 71.8552 314.335 72.8959C314.191 73.9367 314.254 74.9955 314.52 76.012C314.786 77.0284 315.249 77.9826 315.884 78.8199C316.518 79.6573 317.311 80.3614 318.218 80.8922Z" fill="black"/>
<path d="M368 280C369.583 280 371.129 279.531 372.445 278.652C373.761 277.773 374.786 276.524 375.392 275.062C375.997 273.6 376.155 271.991 375.847 270.439C375.538 268.888 374.776 267.462 373.657 266.343L365.657 258.343C364.914 257.6 364.032 257.011 363.062 256.609C362.091 256.207 361.051 256 360 256C358.95 256 357.909 256.207 356.939 256.609C355.968 257.011 355.086 257.6 354.343 258.343C353.6 259.086 353.011 259.968 352.609 260.939C352.207 261.909 352 262.95 352 264C352 265.051 352.207 266.091 352.609 267.062C353.011 268.032 353.6 268.914 354.343 269.657L362.343 277.657C363.085 278.401 363.967 278.991 364.938 279.393C365.909 279.795 366.949 280.002 368 280V280Z" fill="black"/>
<path d="M381.657 298.343C380.914 297.6 380.032 297.011 379.062 296.609C378.091 296.207 377.051 296 376 296C374.95 296 373.909 296.207 372.939 296.609C371.968 297.011 371.086 297.6 370.343 298.343L362.343 306.343C361.6 307.086 361.011 307.968 360.609 308.939C360.207 309.909 360 310.95 360 312C360 313.051 360.207 314.091 360.609 315.062C361.011 316.032 361.6 316.914 362.343 317.657C363.086 318.4 363.968 318.989 364.939 319.392C365.909 319.794 366.95 320.001 368 320.001C369.051 320.001 370.091 319.794 371.062 319.392C372.032 318.989 372.914 318.4 373.657 317.657L381.657 309.657C382.4 308.914 382.989 308.032 383.392 307.062C383.794 306.091 384.001 305.051 384.001 304C384.001 302.95 383.794 301.909 383.392 300.939C382.989 299.968 382.4 299.086 381.657 298.343V298.343Z" fill="black"/>
<path d="M186.343 298.343L178.343 306.343C177.6 307.086 177.011 307.968 176.609 308.939C176.207 309.909 176 310.95 176 312C176 313.051 176.207 314.091 176.609 315.062C177.011 316.032 177.6 316.914 178.343 317.657C179.086 318.4 179.968 318.989 180.939 319.391C181.909 319.793 182.95 320 184 320C185.051 320 186.091 319.793 187.062 319.391C188.032 318.989 188.914 318.4 189.657 317.657L197.657 309.657C199.158 308.157 200 306.122 200 304C200 301.878 199.158 299.844 197.657 298.343C196.157 296.843 194.122 296 192 296C189.878 296 187.844 296.843 186.343 298.343V298.343Z" fill="black"/>
<path d="M392 256C393.051 256.002 394.091 255.795 395.062 255.393C396.033 254.991 396.915 254.401 397.657 253.657L405.657 245.657C407.157 244.157 408 242.122 408 240C408 237.878 407.157 235.844 405.657 234.343C404.156 232.843 402.122 232 400 232C397.878 232 395.843 232.843 394.343 234.343L386.343 242.343C385.224 243.462 384.462 244.888 384.153 246.439C383.845 247.991 384.003 249.6 384.609 251.062C385.214 252.524 386.239 253.773 387.555 254.652C388.871 255.531 390.418 256 392 256Z" fill="black"/>
</svg>
