<?xml version="1.0" encoding="UTF-8" standalone="no"?> <svg id="aceba20c-3989-40a5-b74d-90ef9c1e2966" data-name="glyph" xmlns="http://www.w3.org/2000/svg" viewBox="0 0 64 64"><title>1</title><path d="M50.59979,23.79833A4.98263,4.98263,0,0,0,49.331,21.67456L42.30831,14.6519a5.07085,5.07085,0,0,0-7.1584-.00677L14.65867,35.13635a5.07266,5.07266,0,0,0-1.26883,5.04143A4.97527,4.97527,0,0,0,14.64509,42.288l7.03623,7.03624a5.08468,5.08468,0,0,0,7.15161,0L49.33776,28.833A5.05024,5.05024,0,0,0,50.59979,23.79833ZM39.17352,35.2246a.95974.95974,0,0,1-1.357-1.35708l7.38225-7.38225a.78424.78424,0,0,0,0-1.11278l-1.62163-1.62162a.96215.96215,0,0,1,.77357-1.62845c.47579-.0714,1.58511,1.34884,2.20513,1.893a2.70294,2.70294,0,0,1,0,3.82688Z"/><path d="M44.63563,14.26514l5.0821,5.0821c.27349.27227,1.104,1.08154,1.33664,1.37737l.67179-.67172a2.88956,2.88956,0,0,0,.40028-3.56223c-.68485-.94109-2.39027-2.43188-3.20251-3.31123l-.92283-.92272a2.88273,2.88273,0,0,0-4.07112,0l-.665.665C43.53589,13.15964,44.36736,13.99335,44.63563,14.26514Z"/><path d="M19.354,49.711l-5.0821-5.0821c-.26021-.25912-1.11981-1.09678-1.33665-1.37736l-.67174.67168a2.86407,2.86407,0,0,0-.40714,3.55547c.52029.761,2.49778,2.54938,3.20259,3.31118l.92961.92952a2.90045,2.90045,0,0,0,4.07111,0l.67173-.67168C20.4454,50.82164,19.62655,49.98172,19.354,49.711Z"/><path d="M49.78556,9.848c-.26033.416-1.07921.68258-.4274,1.05162,1.07531,1.07342,2.65316,2.65387,3.725,3.72512.37146.65107.66588-.19275,1.05856-.44778A9.55353,9.55353,0,0,1,57.195,12.46705a4.38758,4.38758,0,1,0-4.70218-7.18541C51.23788,6.556,51.12293,8.65827,49.78556,9.848Z"/><path d="M14.1769,54.14171c.25558-.39583,1.10748-.6909.45462-1.06525,0-.00007-3.09753-3.10582-3.725-3.72511-.377-.65848-.65793.1901-1.06538.441-1.17922,1.326-3.29453,1.45313-4.55964,2.70036A4.388,4.388,0,1,0,12.467,57.19493,9.61323,9.61323,0,0,1,14.1769,54.14171Z"/></svg>