<?xml version="1.0" encoding="UTF-8" standalone="no"?> <svg id="Layer_1" data-name="Layer 1" xmlns="http://www.w3.org/2000/svg" viewBox="0 0 64 64"><defs><style>.cls-1,.cls-2{fill:#231f20;}.cls-1{fill-rule:evenodd;}</style></defs><path class="cls-1" d="M30.223,41.281l6.949-.709a1.9,1.9,0,0,1,1.4.294l3.6,3.168c.365.322.362.833-.069.878l-6.949.709a1.9,1.9,0,0,1-1.4-.294l-3.6-3.169c-.366-.322-.362-.833.069-.877Z"/><path class="cls-1" d="M38.8,31.538l.174,6.983a1.9,1.9,0,0,0,.469,1.351l3.6,3.169c.367.322.873.255.862-.179l-.174-6.984a1.9,1.9,0,0,0-.469-1.351l-3.6-3.168c-.366-.322-.873-.255-.861.179Z"/><path class="cls-1" d="M24.054,35.848,31,35.138a1.907,1.907,0,0,1,1.4.294L36,38.6c.365.322.363.834-.069.877l-6.949.71a1.9,1.9,0,0,1-1.4-.294l-3.6-3.17c-.365-.321-.362-.832.07-.876Z"/><path class="cls-1" d="M32.634,26.1l.174,6.984a1.9,1.9,0,0,0,.469,1.351l3.6,3.168c.366.322.873.256.861-.179l-.174-6.983a1.9,1.9,0,0,0-.469-1.351l-3.6-3.169c-.367-.322-.872-.254-.862.179Z"/><path class="cls-1" d="M17.884,30.414l6.95-.709a1.9,1.9,0,0,1,1.4.294l3.6,3.168c.367.322.364.834-.068.878l-6.95.709a1.9,1.9,0,0,1-1.4-.294l-3.6-3.168c-.366-.323-.363-.834.069-.878Z"/><path class="cls-1" d="M26.464,20.671l.174,6.983a1.913,1.913,0,0,0,.469,1.352l3.6,3.168c.366.322.873.255.861-.179l-.173-6.984a1.9,1.9,0,0,0-.469-1.35l-3.6-3.169c-.366-.322-.872-.254-.862.179Z"/><path class="cls-1" d="M16.477,20.319q8.627-.51,8.749,7.706c-5.246.816-9.039-2.271-8.749-7.706Z"/><path class="cls-2" d="M17.172,20.454a.358.358,0,0,1-.473.538l-7.038-6.2a.358.358,0,0,1,.473-.537l7.038,6.2Z"/><path class="cls-2" d="M18.1,30.592a.358.358,0,1,1-.473.537l-7.037-6.2a.357.357,0,1,1,.472-.537l7.038,6.2Z"/><path class="cls-2" d="M27.131,20.32a.358.358,0,1,1-.473.537l-7.038-6.2a.358.358,0,0,1,.473-.538l7.038,6.2Z"/><path class="cls-2" d="M51.757,50.437a.715.715,0,1,1-.945,1.073l-7.038-6.2a.715.715,0,1,1,.946-1.073l7.037,6.2Z"/></svg>